<svg width="93" height="93" viewBox="0 0 93 93" fill="none" xmlns="http://www.w3.org/2000/svg">
<path fill-rule="evenodd" clip-rule="evenodd" d="M46.8917 77.3165C50.2192 75.72 73.625 63.7399 73.625 42.625C73.625 27.6443 61.4807 15.5 46.5 15.5C31.5193 15.5 19.375 27.6443 19.375 42.625C19.375 63.7399 42.7808 75.72 46.1083 77.3165C46.3651 77.4397 46.6349 77.4397 46.8917 77.3165ZM46.5 54.25C52.9203 54.25 58.125 49.0453 58.125 42.625C58.125 36.2047 52.9203 31 46.5 31C40.0797 31 34.875 36.2047 34.875 42.625C34.875 49.0453 40.0797 54.25 46.5 54.25Z" fill="#50B8AE"/>
</svg>
